<mxfile host="app.diagrams.net" modified="2022-05-04T06:17:38.953Z" agent="5.0 (Macintosh; Intel Mac OS X 10_15_7) AppleWebKit/537.36 (KHTML, like Gecko) Chrome/100.0.4896.127 Safari/537.36" etag="U_GOul0MCdjh6G5qZiK6" version="17.5.0" type="github">
  <diagram id="ce1GtgoNdSxTXqw0j8kx" name="Page-1">
    <mxGraphModel dx="1298" dy="802" grid="1" gridSize="10" guides="1" tooltips="1" connect="1" arrows="1" fold="1" page="1" pageScale="1" pageWidth="827" pageHeight="1169" math="0" shadow="0">
      <root>
        <mxCell id="0" />
        <mxCell id="1" parent="0" />
        <mxCell id="ygTqXombfREkRNXZ_lQi-68" value="" style="rounded=1;whiteSpace=wrap;html=1;labelBackgroundColor=#FFF4C3;fontSize=14;fillColor=#fff2cc;strokeColor=#d6b656;" parent="1" vertex="1">
          <mxGeometry x="140" y="20" width="470" height="640" as="geometry" />
        </mxCell>
        <mxCell id="ygTqXombfREkRNXZ_lQi-1" value="Host11" style="shape=mxgraph.cisco.computers_and_peripherals.pc;html=1;pointerEvents=1;dashed=0;fillColor=#036897;strokeColor=#ffffff;strokeWidth=2;verticalLabelPosition=bottom;verticalAlign=top;align=center;outlineConnect=0;" parent="1" vertex="1">
          <mxGeometry x="170" y="80" width="78" height="70" as="geometry" />
        </mxCell>
        <mxCell id="ygTqXombfREkRNXZ_lQi-2" value="Host12" style="shape=mxgraph.cisco.computers_and_peripherals.pc;html=1;pointerEvents=1;dashed=0;fillColor=#036897;strokeColor=#ffffff;strokeWidth=2;verticalLabelPosition=bottom;verticalAlign=top;align=center;outlineConnect=0;" parent="1" vertex="1">
          <mxGeometry x="500" y="80" width="78" height="70" as="geometry" />
        </mxCell>
        <mxCell id="ygTqXombfREkRNXZ_lQi-3" value="&lt;h1&gt;HQ&lt;/h1&gt;&lt;div&gt;&lt;font style=&quot;font-size: 14px&quot;&gt;AS 65001&lt;/font&gt;&lt;/div&gt;&lt;div&gt;10.1.0.0/16&lt;/div&gt;&lt;div&gt;OSPF IPv4 Area0&lt;/div&gt;&lt;div&gt;IPv6 EIGRP&lt;/div&gt;" style="text;html=1;strokeColor=none;fillColor=none;spacing=5;spacingTop=-20;whiteSpace=wrap;overflow=hidden;rounded=0;align=center;" parent="1" vertex="1">
          <mxGeometry x="310" y="30" width="120" height="120" as="geometry" />
        </mxCell>
        <mxCell id="ygTqXombfREkRNXZ_lQi-4" value="SW110" style="sketch=0;points=[[0.015,0.015,0],[0.985,0.015,0],[0.985,0.985,0],[0.015,0.985,0],[0.25,0,0],[0.5,0,0],[0.75,0,0],[1,0.25,0],[1,0.5,0],[1,0.75,0],[0.75,1,0],[0.5,1,0],[0.25,1,0],[0,0.75,0],[0,0.5,0],[0,0.25,0]];verticalLabelPosition=bottom;html=1;verticalAlign=top;aspect=fixed;align=center;pointerEvents=1;shape=mxgraph.cisco19.rect;prIcon=l3_switch;fillColor=#FAFAFA;strokeColor=#005073;fontSize=14;" parent="1" vertex="1">
          <mxGeometry x="350" y="200" width="50" height="50" as="geometry" />
        </mxCell>
        <mxCell id="ygTqXombfREkRNXZ_lQi-5" value="SW101" style="sketch=0;points=[[0.015,0.015,0],[0.985,0.015,0],[0.985,0.985,0],[0.015,0.985,0],[0.25,0,0],[0.5,0,0],[0.75,0,0],[1,0.25,0],[1,0.5,0],[1,0.75,0],[0.75,1,0],[0.5,1,0],[0.25,1,0],[0,0.75,0],[0,0.5,0],[0,0.25,0]];verticalLabelPosition=bottom;html=1;verticalAlign=top;aspect=fixed;align=center;pointerEvents=1;shape=mxgraph.cisco19.rect;prIcon=l3_switch;fillColor=#FAFAFA;strokeColor=#005073;fontSize=14;" parent="1" vertex="1">
          <mxGeometry x="180" y="343.89" width="50" height="50" as="geometry" />
        </mxCell>
        <mxCell id="ygTqXombfREkRNXZ_lQi-6" value="SW102" style="sketch=0;points=[[0.015,0.015,0],[0.985,0.015,0],[0.985,0.985,0],[0.015,0.985,0],[0.25,0,0],[0.5,0,0],[0.75,0,0],[1,0.25,0],[1,0.5,0],[1,0.75,0],[0.75,1,0],[0.5,1,0],[0.25,1,0],[0,0.75,0],[0,0.5,0],[0,0.25,0]];verticalLabelPosition=bottom;html=1;verticalAlign=top;aspect=fixed;align=center;pointerEvents=1;shape=mxgraph.cisco19.rect;prIcon=l3_switch;fillColor=#FAFAFA;strokeColor=#005073;fontSize=14;" parent="1" vertex="1">
          <mxGeometry x="510.77" y="350" width="50" height="50" as="geometry" />
        </mxCell>
        <mxCell id="ygTqXombfREkRNXZ_lQi-7" value="R11" style="sketch=0;points=[[0.5,0,0],[1,0.5,0],[0.5,1,0],[0,0.5,0],[0.145,0.145,0],[0.8555,0.145,0],[0.855,0.8555,0],[0.145,0.855,0]];verticalLabelPosition=bottom;html=1;verticalAlign=top;aspect=fixed;align=center;pointerEvents=1;shape=mxgraph.cisco19.rect;prIcon=router;fillColor=#FAFAFA;strokeColor=#005073;fontSize=14;" parent="1" vertex="1">
          <mxGeometry x="180.77" y="565" width="50" height="50" as="geometry" />
        </mxCell>
        <mxCell id="ygTqXombfREkRNXZ_lQi-8" value="R12" style="sketch=0;points=[[0.5,0,0],[1,0.5,0],[0.5,1,0],[0,0.5,0],[0.145,0.145,0],[0.8555,0.145,0],[0.855,0.8555,0],[0.145,0.855,0]];verticalLabelPosition=bottom;html=1;verticalAlign=top;aspect=fixed;align=center;pointerEvents=1;shape=mxgraph.cisco19.rect;prIcon=router;fillColor=#FAFAFA;strokeColor=#005073;fontSize=14;" parent="1" vertex="1">
          <mxGeometry x="510.77" y="565" width="50" height="50" as="geometry" />
        </mxCell>
        <mxCell id="ygTqXombfREkRNXZ_lQi-10" value="" style="endArrow=none;html=1;rounded=0;fontSize=14;" parent="1" target="ygTqXombfREkRNXZ_lQi-2" edge="1">
          <mxGeometry width="50" height="50" relative="1" as="geometry">
            <mxPoint x="400" y="210" as="sourcePoint" />
            <mxPoint x="450" y="160" as="targetPoint" />
          </mxGeometry>
        </mxCell>
        <mxCell id="ygTqXombfREkRNXZ_lQi-26" value="g0/1" style="edgeLabel;html=1;align=center;verticalAlign=middle;resizable=0;points=[];fontSize=10;" parent="ygTqXombfREkRNXZ_lQi-10" vertex="1" connectable="0">
          <mxGeometry x="-0.7665" y="-1" relative="1" as="geometry">
            <mxPoint x="2" y="-3" as="offset" />
          </mxGeometry>
        </mxCell>
        <mxCell id="ygTqXombfREkRNXZ_lQi-12" value="" style="endArrow=none;html=1;rounded=0;fontSize=14;" parent="1" edge="1">
          <mxGeometry width="50" height="50" relative="1" as="geometry">
            <mxPoint x="350" y="210" as="sourcePoint" />
            <mxPoint x="240" y="140" as="targetPoint" />
          </mxGeometry>
        </mxCell>
        <mxCell id="ygTqXombfREkRNXZ_lQi-25" value="g0/0" style="edgeLabel;html=1;align=center;verticalAlign=middle;resizable=0;points=[];fontSize=10;" parent="ygTqXombfREkRNXZ_lQi-12" vertex="1" connectable="0">
          <mxGeometry x="-0.6124" y="1" relative="1" as="geometry">
            <mxPoint x="12" y="3" as="offset" />
          </mxGeometry>
        </mxCell>
        <mxCell id="ygTqXombfREkRNXZ_lQi-13" value="" style="endArrow=none;html=1;rounded=0;fontSize=14;entryX=0;entryY=0.75;entryDx=0;entryDy=0;entryPerimeter=0;exitX=0.985;exitY=0.015;exitDx=0;exitDy=0;exitPerimeter=0;" parent="1" source="ygTqXombfREkRNXZ_lQi-5" target="ygTqXombfREkRNXZ_lQi-4" edge="1">
          <mxGeometry width="50" height="50" relative="1" as="geometry">
            <mxPoint x="230" y="330" as="sourcePoint" />
            <mxPoint x="280" y="280" as="targetPoint" />
          </mxGeometry>
        </mxCell>
        <mxCell id="ygTqXombfREkRNXZ_lQi-27" value="g1/0-1(Po1)" style="edgeLabel;html=1;align=center;verticalAlign=middle;resizable=0;points=[];fontSize=10;" parent="ygTqXombfREkRNXZ_lQi-13" vertex="1" connectable="0">
          <mxGeometry x="0.4686" y="2" relative="1" as="geometry">
            <mxPoint x="2" y="-7" as="offset" />
          </mxGeometry>
        </mxCell>
        <mxCell id="ygTqXombfREkRNXZ_lQi-29" value="g1/2-3(Po1)" style="edgeLabel;html=1;align=center;verticalAlign=middle;resizable=0;points=[];fontSize=10;" parent="ygTqXombfREkRNXZ_lQi-13" vertex="1" connectable="0">
          <mxGeometry x="-0.7504" relative="1" as="geometry">
            <mxPoint x="2" y="-8" as="offset" />
          </mxGeometry>
        </mxCell>
        <mxCell id="ygTqXombfREkRNXZ_lQi-69" value="PO1" style="edgeLabel;html=1;align=center;verticalAlign=middle;resizable=0;points=[];fontSize=14;" parent="ygTqXombfREkRNXZ_lQi-13" vertex="1" connectable="0">
          <mxGeometry x="-0.0711" y="1" relative="1" as="geometry">
            <mxPoint as="offset" />
          </mxGeometry>
        </mxCell>
        <mxCell id="ygTqXombfREkRNXZ_lQi-14" value="" style="endArrow=none;html=1;rounded=0;fontSize=14;exitX=0.8555;exitY=0.145;exitDx=0;exitDy=0;exitPerimeter=0;entryX=0.015;entryY=0.985;entryDx=0;entryDy=0;entryPerimeter=0;" parent="1" source="ygTqXombfREkRNXZ_lQi-7" target="ygTqXombfREkRNXZ_lQi-6" edge="1">
          <mxGeometry width="50" height="50" relative="1" as="geometry">
            <mxPoint x="234" y="450" as="sourcePoint" />
            <mxPoint x="510" y="340" as="targetPoint" />
          </mxGeometry>
        </mxCell>
        <mxCell id="ygTqXombfREkRNXZ_lQi-34" value="g0/2&amp;nbsp; .1" style="edgeLabel;html=1;align=center;verticalAlign=middle;resizable=0;points=[];fontSize=10;" parent="ygTqXombfREkRNXZ_lQi-14" vertex="1" connectable="0">
          <mxGeometry x="-0.875" y="1" relative="1" as="geometry">
            <mxPoint as="offset" />
          </mxGeometry>
        </mxCell>
        <mxCell id="ygTqXombfREkRNXZ_lQi-52" value="10.1.13.0/30" style="edgeLabel;html=1;align=center;verticalAlign=middle;resizable=0;points=[];fontSize=14;labelBackgroundColor=#E6E6E6;" parent="ygTqXombfREkRNXZ_lQi-14" vertex="1" connectable="0">
          <mxGeometry x="0.5449" y="2" relative="1" as="geometry">
            <mxPoint x="-8" y="6" as="offset" />
          </mxGeometry>
        </mxCell>
        <mxCell id="ygTqXombfREkRNXZ_lQi-60" value="g0/1&amp;nbsp; .2" style="edgeLabel;html=1;align=center;verticalAlign=middle;resizable=0;points=[];fontSize=10;" parent="ygTqXombfREkRNXZ_lQi-14" vertex="1" connectable="0">
          <mxGeometry x="0.9229" relative="1" as="geometry">
            <mxPoint x="-10" y="4" as="offset" />
          </mxGeometry>
        </mxCell>
        <mxCell id="ygTqXombfREkRNXZ_lQi-15" value="" style="endArrow=none;html=1;rounded=0;fontSize=14;entryX=0.015;entryY=0.015;entryDx=0;entryDy=0;entryPerimeter=0;" parent="1" target="ygTqXombfREkRNXZ_lQi-6" edge="1">
          <mxGeometry width="50" height="50" relative="1" as="geometry">
            <mxPoint x="400" y="240" as="sourcePoint" />
            <mxPoint x="510" y="310" as="targetPoint" />
          </mxGeometry>
        </mxCell>
        <mxCell id="ygTqXombfREkRNXZ_lQi-28" value="g1/2-3(Po2)" style="edgeLabel;html=1;align=center;verticalAlign=middle;resizable=0;points=[];fontSize=10;" parent="ygTqXombfREkRNXZ_lQi-15" vertex="1" connectable="0">
          <mxGeometry x="-0.8042" y="-1" relative="1" as="geometry">
            <mxPoint x="20" y="-1" as="offset" />
          </mxGeometry>
        </mxCell>
        <mxCell id="ygTqXombfREkRNXZ_lQi-30" value="g1/2-3(Po2)" style="edgeLabel;html=1;align=center;verticalAlign=middle;resizable=0;points=[];fontSize=10;" parent="ygTqXombfREkRNXZ_lQi-15" vertex="1" connectable="0">
          <mxGeometry x="0.6023" relative="1" as="geometry">
            <mxPoint x="8" y="-4" as="offset" />
          </mxGeometry>
        </mxCell>
        <mxCell id="ygTqXombfREkRNXZ_lQi-70" value="PO2" style="edgeLabel;html=1;align=center;verticalAlign=middle;resizable=0;points=[];fontSize=14;" parent="ygTqXombfREkRNXZ_lQi-15" vertex="1" connectable="0">
          <mxGeometry x="-0.1137" y="-1" relative="1" as="geometry">
            <mxPoint y="-1" as="offset" />
          </mxGeometry>
        </mxCell>
        <mxCell id="ygTqXombfREkRNXZ_lQi-16" value="" style="endArrow=none;html=1;rounded=0;fontSize=14;entryX=0.145;entryY=0.145;entryDx=0;entryDy=0;entryPerimeter=0;exitX=0.985;exitY=0.985;exitDx=0;exitDy=0;exitPerimeter=0;" parent="1" source="ygTqXombfREkRNXZ_lQi-5" target="ygTqXombfREkRNXZ_lQi-8" edge="1">
          <mxGeometry width="50" height="50" relative="1" as="geometry">
            <mxPoint x="234" y="330" as="sourcePoint" />
            <mxPoint x="520" y="440" as="targetPoint" />
          </mxGeometry>
        </mxCell>
        <mxCell id="ygTqXombfREkRNXZ_lQi-31" value="g0/1&amp;nbsp; .1" style="edgeLabel;html=1;align=center;verticalAlign=middle;resizable=0;points=[];fontSize=10;" parent="ygTqXombfREkRNXZ_lQi-16" vertex="1" connectable="0">
          <mxGeometry x="-0.8995" y="-1" relative="1" as="geometry">
            <mxPoint x="7" y="-3" as="offset" />
          </mxGeometry>
        </mxCell>
        <mxCell id="ygTqXombfREkRNXZ_lQi-37" value="g0/2&amp;nbsp; .2" style="edgeLabel;html=1;align=center;verticalAlign=middle;resizable=0;points=[];fontSize=10;" parent="ygTqXombfREkRNXZ_lQi-16" vertex="1" connectable="0">
          <mxGeometry x="0.8792" relative="1" as="geometry">
            <mxPoint as="offset" />
          </mxGeometry>
        </mxCell>
        <mxCell id="ygTqXombfREkRNXZ_lQi-51" value="10.1.12.0/30" style="edgeLabel;html=1;align=center;verticalAlign=middle;resizable=0;points=[];fontSize=14;labelBackgroundColor=#E6E6E6;" parent="ygTqXombfREkRNXZ_lQi-16" vertex="1" connectable="0">
          <mxGeometry x="-0.5843" y="1" relative="1" as="geometry">
            <mxPoint x="18" y="14" as="offset" />
          </mxGeometry>
        </mxCell>
        <mxCell id="ygTqXombfREkRNXZ_lQi-17" value="" style="endArrow=none;html=1;rounded=0;fontSize=14;exitX=0.5;exitY=0;exitDx=0;exitDy=0;exitPerimeter=0;" parent="1" source="ygTqXombfREkRNXZ_lQi-7" target="ygTqXombfREkRNXZ_lQi-5" edge="1">
          <mxGeometry width="50" height="50" relative="1" as="geometry">
            <mxPoint x="120" y="420" as="sourcePoint" />
            <mxPoint x="170" y="370" as="targetPoint" />
          </mxGeometry>
        </mxCell>
        <mxCell id="ygTqXombfREkRNXZ_lQi-32" value="g0/0&amp;nbsp; &amp;nbsp;.2" style="edgeLabel;html=1;align=center;verticalAlign=middle;resizable=0;points=[];fontSize=10;" parent="ygTqXombfREkRNXZ_lQi-17" vertex="1" connectable="0">
          <mxGeometry x="0.2111" y="-3" relative="1" as="geometry">
            <mxPoint x="-8" y="-31" as="offset" />
          </mxGeometry>
        </mxCell>
        <mxCell id="ygTqXombfREkRNXZ_lQi-33" value="g0/3&amp;nbsp; .1" style="edgeLabel;html=1;align=center;verticalAlign=middle;resizable=0;points=[];fontSize=10;" parent="ygTqXombfREkRNXZ_lQi-17" vertex="1" connectable="0">
          <mxGeometry x="-0.7" y="-2" relative="1" as="geometry">
            <mxPoint x="-8" y="11" as="offset" />
          </mxGeometry>
        </mxCell>
        <mxCell id="ygTqXombfREkRNXZ_lQi-50" value="10.1.10.0/30&amp;nbsp;" style="edgeLabel;html=1;align=center;verticalAlign=middle;resizable=0;points=[];fontSize=14;labelBackgroundColor=#E6E6E6;" parent="ygTqXombfREkRNXZ_lQi-17" vertex="1" connectable="0">
          <mxGeometry x="-0.2111" relative="1" as="geometry">
            <mxPoint y="1" as="offset" />
          </mxGeometry>
        </mxCell>
        <mxCell id="ygTqXombfREkRNXZ_lQi-19" value="" style="endArrow=none;html=1;rounded=0;fontSize=14;exitX=0.5;exitY=0;exitDx=0;exitDy=0;exitPerimeter=0;" parent="1" source="ygTqXombfREkRNXZ_lQi-8" edge="1">
          <mxGeometry width="50" height="50" relative="1" as="geometry">
            <mxPoint x="490" y="390" as="sourcePoint" />
            <mxPoint x="536" y="400" as="targetPoint" />
          </mxGeometry>
        </mxCell>
        <mxCell id="ygTqXombfREkRNXZ_lQi-53" value="10.1.11.0/30" style="edgeLabel;html=1;align=center;verticalAlign=middle;resizable=0;points=[];fontSize=14;labelBackgroundColor=#E6E6E6;" parent="ygTqXombfREkRNXZ_lQi-19" vertex="1" connectable="0">
          <mxGeometry x="-0.0554" y="-1" relative="1" as="geometry">
            <mxPoint as="offset" />
          </mxGeometry>
        </mxCell>
        <mxCell id="ygTqXombfREkRNXZ_lQi-58" value="g0/0&amp;nbsp; .2" style="edgeLabel;html=1;align=center;verticalAlign=middle;resizable=0;points=[];fontSize=10;" parent="ygTqXombfREkRNXZ_lQi-19" vertex="1" connectable="0">
          <mxGeometry x="0.4781" y="-1" relative="1" as="geometry">
            <mxPoint y="-13" as="offset" />
          </mxGeometry>
        </mxCell>
        <mxCell id="ygTqXombfREkRNXZ_lQi-59" value="g0/3&amp;nbsp; &amp;nbsp;.1" style="edgeLabel;html=1;align=center;verticalAlign=middle;resizable=0;points=[];fontSize=10;" parent="ygTqXombfREkRNXZ_lQi-19" vertex="1" connectable="0">
          <mxGeometry x="-0.6776" y="-1" relative="1" as="geometry">
            <mxPoint x="4" y="5" as="offset" />
          </mxGeometry>
        </mxCell>
        <mxCell id="ygTqXombfREkRNXZ_lQi-20" value="" style="endArrow=none;html=1;rounded=0;fontSize=14;entryX=0;entryY=0.5;entryDx=0;entryDy=0;entryPerimeter=0;" parent="1" target="ygTqXombfREkRNXZ_lQi-6" edge="1">
          <mxGeometry width="50" height="50" relative="1" as="geometry">
            <mxPoint x="236" y="373.89" as="sourcePoint" />
            <mxPoint x="276" y="323.89" as="targetPoint" />
          </mxGeometry>
        </mxCell>
        <mxCell id="ygTqXombfREkRNXZ_lQi-21" value="&lt;font style=&quot;font-size: 10px&quot;&gt;g2/0-1(Po3)&lt;/font&gt;" style="edgeLabel;html=1;align=center;verticalAlign=middle;resizable=0;points=[];fontSize=14;" parent="ygTqXombfREkRNXZ_lQi-20" vertex="1" connectable="0">
          <mxGeometry x="0.847" y="-2" relative="1" as="geometry">
            <mxPoint x="-9" y="-4" as="offset" />
          </mxGeometry>
        </mxCell>
        <mxCell id="ygTqXombfREkRNXZ_lQi-24" value="g2/0-1(Po3)" style="edgeLabel;html=1;align=center;verticalAlign=middle;resizable=0;points=[];fontSize=10;" parent="ygTqXombfREkRNXZ_lQi-20" vertex="1" connectable="0">
          <mxGeometry x="-0.7593" y="-1" relative="1" as="geometry">
            <mxPoint x="-3" y="-4" as="offset" />
          </mxGeometry>
        </mxCell>
        <mxCell id="ygTqXombfREkRNXZ_lQi-71" value="PO3" style="edgeLabel;html=1;align=center;verticalAlign=middle;resizable=0;points=[];fontSize=14;" parent="ygTqXombfREkRNXZ_lQi-20" vertex="1" connectable="0">
          <mxGeometry x="-0.0901" relative="1" as="geometry">
            <mxPoint x="5" as="offset" />
          </mxGeometry>
        </mxCell>
        <mxCell id="ygTqXombfREkRNXZ_lQi-23" value="" style="endArrow=none;html=1;rounded=0;fontSize=14;entryX=0;entryY=0.5;entryDx=0;entryDy=0;entryPerimeter=0;exitX=1;exitY=0.5;exitDx=0;exitDy=0;exitPerimeter=0;" parent="1" source="ygTqXombfREkRNXZ_lQi-7" target="ygTqXombfREkRNXZ_lQi-8" edge="1">
          <mxGeometry width="50" height="50" relative="1" as="geometry">
            <mxPoint x="216.77" y="615" as="sourcePoint" />
            <mxPoint x="266.77" y="565" as="targetPoint" />
          </mxGeometry>
        </mxCell>
        <mxCell id="ygTqXombfREkRNXZ_lQi-35" value="g0/1&amp;nbsp; .1&amp;nbsp;" style="edgeLabel;html=1;align=center;verticalAlign=middle;resizable=0;points=[];fontSize=10;" parent="ygTqXombfREkRNXZ_lQi-23" vertex="1" connectable="0">
          <mxGeometry x="-0.7143" y="-2" relative="1" as="geometry">
            <mxPoint x="-20" y="-2" as="offset" />
          </mxGeometry>
        </mxCell>
        <mxCell id="ygTqXombfREkRNXZ_lQi-38" value="g0/1&amp;nbsp; .2" style="edgeLabel;html=1;align=center;verticalAlign=middle;resizable=0;points=[];fontSize=10;" parent="ygTqXombfREkRNXZ_lQi-23" vertex="1" connectable="0">
          <mxGeometry x="0.8643" y="-1" relative="1" as="geometry">
            <mxPoint y="1" as="offset" />
          </mxGeometry>
        </mxCell>
        <mxCell id="ygTqXombfREkRNXZ_lQi-54" value="10.1.99.0/30&amp;nbsp;" style="edgeLabel;html=1;align=center;verticalAlign=middle;resizable=0;points=[];fontSize=14;labelBackgroundColor=#E6E6E6;" parent="ygTqXombfREkRNXZ_lQi-23" vertex="1" connectable="0">
          <mxGeometry x="-0.1429" y="2" relative="1" as="geometry">
            <mxPoint y="1" as="offset" />
          </mxGeometry>
        </mxCell>
        <mxCell id="ygTqXombfREkRNXZ_lQi-39" value="" style="endArrow=none;html=1;rounded=0;fontSize=10;entryX=0.12;entryY=1.05;entryDx=0;entryDy=0;entryPerimeter=0;exitX=0.5;exitY=0;exitDx=0;exitDy=0;exitPerimeter=0;" parent="1" source="ygTqXombfREkRNXZ_lQi-43" target="ygTqXombfREkRNXZ_lQi-7" edge="1">
          <mxGeometry width="50" height="50" relative="1" as="geometry">
            <mxPoint x="150" y="530" as="sourcePoint" />
            <mxPoint x="200" y="480" as="targetPoint" />
          </mxGeometry>
        </mxCell>
        <mxCell id="ygTqXombfREkRNXZ_lQi-41" value="g0/0&amp;nbsp; .2" style="edgeLabel;html=1;align=center;verticalAlign=middle;resizable=0;points=[];fontSize=10;" parent="ygTqXombfREkRNXZ_lQi-39" vertex="1" connectable="0">
          <mxGeometry x="0.3115" y="-1" relative="1" as="geometry">
            <mxPoint x="-6" y="-30" as="offset" />
          </mxGeometry>
        </mxCell>
        <mxCell id="ygTqXombfREkRNXZ_lQi-55" value="100.3.11.0/30" style="edgeLabel;html=1;align=center;verticalAlign=middle;resizable=0;points=[];fontSize=14;labelBackgroundColor=#E6E6E6;" parent="ygTqXombfREkRNXZ_lQi-39" vertex="1" connectable="0">
          <mxGeometry x="-0.2784" y="1" relative="1" as="geometry">
            <mxPoint x="-16" y="-8" as="offset" />
          </mxGeometry>
        </mxCell>
        <mxCell id="ygTqXombfREkRNXZ_lQi-56" value="g1&amp;nbsp; .1&amp;nbsp;" style="edgeLabel;html=1;align=center;verticalAlign=middle;resizable=0;points=[];fontSize=10;" parent="ygTqXombfREkRNXZ_lQi-39" vertex="1" connectable="0">
          <mxGeometry x="-0.5653" y="-1" relative="1" as="geometry">
            <mxPoint x="-10" y="39" as="offset" />
          </mxGeometry>
        </mxCell>
        <mxCell id="ygTqXombfREkRNXZ_lQi-66" value="g1&amp;nbsp; .1" style="edgeLabel;html=1;align=center;verticalAlign=middle;resizable=0;points=[];fontSize=10;" parent="ygTqXombfREkRNXZ_lQi-39" vertex="1" connectable="0">
          <mxGeometry x="-0.6858" y="1" relative="1" as="geometry">
            <mxPoint as="offset" />
          </mxGeometry>
        </mxCell>
        <mxCell id="ygTqXombfREkRNXZ_lQi-40" value="" style="endArrow=none;html=1;rounded=0;fontSize=10;entryX=0.855;entryY=0.8555;entryDx=0;entryDy=0;entryPerimeter=0;exitX=0.5;exitY=0.02;exitDx=0;exitDy=0;exitPerimeter=0;" parent="1" source="ygTqXombfREkRNXZ_lQi-48" target="ygTqXombfREkRNXZ_lQi-8" edge="1">
          <mxGeometry width="50" height="50" relative="1" as="geometry">
            <mxPoint x="620" y="690" as="sourcePoint" />
            <mxPoint x="540" y="480" as="targetPoint" />
          </mxGeometry>
        </mxCell>
        <mxCell id="ygTqXombfREkRNXZ_lQi-42" value="g0/0" style="edgeLabel;html=1;align=center;verticalAlign=middle;resizable=0;points=[];fontSize=10;" parent="ygTqXombfREkRNXZ_lQi-40" vertex="1" connectable="0">
          <mxGeometry x="0.7504" y="-2" relative="1" as="geometry">
            <mxPoint as="offset" />
          </mxGeometry>
        </mxCell>
        <mxCell id="ygTqXombfREkRNXZ_lQi-57" value="200.99.12.2" style="edgeLabel;html=1;align=center;verticalAlign=middle;resizable=0;points=[];fontSize=14;labelBackgroundColor=#E6E6E6;" parent="ygTqXombfREkRNXZ_lQi-40" vertex="1" connectable="0">
          <mxGeometry x="0.3238" y="-1" relative="1" as="geometry">
            <mxPoint x="42" y="22" as="offset" />
          </mxGeometry>
        </mxCell>
        <mxCell id="ygTqXombfREkRNXZ_lQi-43" value="&lt;font style=&quot;font-size: 14px&quot;&gt;R3&lt;/font&gt;" style="sketch=0;points=[[0.5,0,0],[1,0.5,0],[0.5,1,0],[0,0.5,0],[0.145,0.145,0],[0.8555,0.145,0],[0.855,0.8555,0],[0.145,0.855,0]];verticalLabelPosition=bottom;html=1;verticalAlign=top;aspect=fixed;align=center;pointerEvents=1;shape=mxgraph.cisco19.rect;prIcon=router;fillColor=#FAFAFA;strokeColor=#005073;fontSize=10;" parent="1" vertex="1">
          <mxGeometry x="100" y="710" width="50" height="50" as="geometry" />
        </mxCell>
        <mxCell id="ygTqXombfREkRNXZ_lQi-44" value="SW201" style="sketch=0;points=[[0.015,0.015,0],[0.985,0.015,0],[0.985,0.985,0],[0.015,0.985,0],[0.25,0,0],[0.5,0,0],[0.75,0,0],[1,0.25,0],[1,0.5,0],[1,0.75,0],[0.75,1,0],[0.5,1,0],[0.25,1,0],[0,0.75,0],[0,0.5,0],[0,0.25,0]];verticalLabelPosition=bottom;html=1;verticalAlign=top;aspect=fixed;align=center;pointerEvents=1;shape=mxgraph.cisco19.rect;prIcon=l3_switch;fillColor=#FAFAFA;strokeColor=#005073;fontSize=14;" parent="1" vertex="1">
          <mxGeometry x="30" y="230" width="50" height="50" as="geometry" />
        </mxCell>
        <mxCell id="ygTqXombfREkRNXZ_lQi-45" value="SW202" style="sketch=0;points=[[0.015,0.015,0],[0.985,0.015,0],[0.985,0.985,0],[0.015,0.985,0],[0.25,0,0],[0.5,0,0],[0.75,0,0],[1,0.25,0],[1,0.5,0],[1,0.75,0],[0.75,1,0],[0.5,1,0],[0.25,1,0],[0,0.75,0],[0,0.5,0],[0,0.25,0]];verticalLabelPosition=bottom;html=1;verticalAlign=top;aspect=fixed;align=center;pointerEvents=1;shape=mxgraph.cisco19.rect;prIcon=l3_switch;fillColor=#FAFAFA;strokeColor=#005073;fontSize=14;" parent="1" vertex="1">
          <mxGeometry x="680" y="230" width="50" height="50" as="geometry" />
        </mxCell>
        <mxCell id="ygTqXombfREkRNXZ_lQi-46" value="" style="endArrow=none;html=1;rounded=0;fontSize=14;entryX=0.015;entryY=0.985;entryDx=0;entryDy=0;entryPerimeter=0;exitX=0.985;exitY=0.015;exitDx=0;exitDy=0;exitPerimeter=0;" parent="1" source="ygTqXombfREkRNXZ_lQi-6" target="ygTqXombfREkRNXZ_lQi-45" edge="1">
          <mxGeometry width="50" height="50" relative="1" as="geometry">
            <mxPoint x="560" y="320" as="sourcePoint" />
            <mxPoint x="610" y="270" as="targetPoint" />
          </mxGeometry>
        </mxCell>
        <mxCell id="ygTqXombfREkRNXZ_lQi-63" value="g0/2 .2" style="edgeLabel;html=1;align=center;verticalAlign=middle;resizable=0;points=[];fontSize=10;" parent="ygTqXombfREkRNXZ_lQi-46" vertex="1" connectable="0">
          <mxGeometry x="-0.7356" relative="1" as="geometry">
            <mxPoint as="offset" />
          </mxGeometry>
        </mxCell>
        <mxCell id="ygTqXombfREkRNXZ_lQi-64" value="g1/2 .1" style="edgeLabel;html=1;align=center;verticalAlign=middle;resizable=0;points=[];fontSize=10;" parent="ygTqXombfREkRNXZ_lQi-46" vertex="1" connectable="0">
          <mxGeometry x="0.7379" y="-1" relative="1" as="geometry">
            <mxPoint x="-9" as="offset" />
          </mxGeometry>
        </mxCell>
        <mxCell id="ygTqXombfREkRNXZ_lQi-65" value="10.2.242.0/30" style="edgeLabel;html=1;align=center;verticalAlign=middle;resizable=0;points=[];fontSize=14;labelBackgroundColor=#E6E6E6;" parent="ygTqXombfREkRNXZ_lQi-46" vertex="1" connectable="0">
          <mxGeometry x="0.0161" y="3" relative="1" as="geometry">
            <mxPoint x="40" y="8" as="offset" />
          </mxGeometry>
        </mxCell>
        <mxCell id="ygTqXombfREkRNXZ_lQi-47" value="" style="endArrow=none;html=1;rounded=0;fontSize=14;entryX=0;entryY=0.5;entryDx=0;entryDy=0;entryPerimeter=0;exitX=0.985;exitY=0.985;exitDx=0;exitDy=0;exitPerimeter=0;" parent="1" source="ygTqXombfREkRNXZ_lQi-44" target="ygTqXombfREkRNXZ_lQi-5" edge="1">
          <mxGeometry width="50" height="50" relative="1" as="geometry">
            <mxPoint x="80" y="290" as="sourcePoint" />
            <mxPoint x="130" y="240" as="targetPoint" />
          </mxGeometry>
        </mxCell>
        <mxCell id="ygTqXombfREkRNXZ_lQi-49" value="10.2.241.0/30" style="edgeLabel;html=1;align=center;verticalAlign=middle;resizable=0;points=[];fontSize=14;labelBackgroundColor=#E6E6E6;" parent="ygTqXombfREkRNXZ_lQi-47" vertex="1" connectable="0">
          <mxGeometry x="-0.0582" y="3" relative="1" as="geometry">
            <mxPoint x="-39" as="offset" />
          </mxGeometry>
        </mxCell>
        <mxCell id="ygTqXombfREkRNXZ_lQi-61" value="g1/2&amp;nbsp; .1" style="edgeLabel;html=1;align=center;verticalAlign=middle;resizable=0;points=[];fontSize=10;" parent="ygTqXombfREkRNXZ_lQi-47" vertex="1" connectable="0">
          <mxGeometry x="-0.7465" y="3" relative="1" as="geometry">
            <mxPoint x="7" as="offset" />
          </mxGeometry>
        </mxCell>
        <mxCell id="ygTqXombfREkRNXZ_lQi-62" value="g0/2&amp;nbsp; .2" style="edgeLabel;html=1;align=center;verticalAlign=middle;resizable=0;points=[];fontSize=10;" parent="ygTqXombfREkRNXZ_lQi-47" vertex="1" connectable="0">
          <mxGeometry x="0.6447" relative="1" as="geometry">
            <mxPoint x="-8" y="4" as="offset" />
          </mxGeometry>
        </mxCell>
        <mxCell id="ygTqXombfREkRNXZ_lQi-48" value="Internet SP&lt;br&gt;AS 19999&lt;br&gt;8.8.8.8" style="sketch=0;aspect=fixed;pointerEvents=1;shadow=0;dashed=0;html=1;strokeColor=none;labelPosition=center;verticalLabelPosition=bottom;verticalAlign=top;align=center;fillColor=#00188D;shape=mxgraph.mscae.enterprise.internet_hollow;fontSize=14;" parent="1" vertex="1">
          <mxGeometry x="600" y="700" width="50" height="31" as="geometry" />
        </mxCell>
        <mxCell id="TDHP-WZ_9Jo_Nsl-w6er-1" value="" style="sketch=0;aspect=fixed;pointerEvents=1;shadow=0;dashed=0;html=1;strokeColor=none;labelPosition=center;verticalLabelPosition=bottom;verticalAlign=top;align=center;fillColor=#00188D;shape=mxgraph.mscae.enterprise.internet_hollow;labelBackgroundColor=#FFF4C3;fontSize=14;" vertex="1" parent="1">
          <mxGeometry x="120" y="870" width="129.03" height="80" as="geometry" />
        </mxCell>
        <mxCell id="TDHP-WZ_9Jo_Nsl-w6er-4" value="VLAN 2000&lt;br&gt;10.1.100.0/24" style="text;html=1;align=center;verticalAlign=middle;whiteSpace=wrap;rounded=0;labelBackgroundColor=default;fontSize=14;fontColor=#990000;" vertex="1" parent="1">
          <mxGeometry x="120" y="910" width="130" height="30" as="geometry" />
        </mxCell>
        <mxCell id="TDHP-WZ_9Jo_Nsl-w6er-5" value="" style="sketch=0;aspect=fixed;pointerEvents=1;shadow=0;dashed=0;html=1;strokeColor=none;labelPosition=center;verticalLabelPosition=bottom;verticalAlign=top;align=center;fillColor=#00188D;shape=mxgraph.mscae.enterprise.internet_hollow;labelBackgroundColor=#FFF4C3;fontSize=14;" vertex="1" parent="1">
          <mxGeometry x="550" y="870" width="129.03" height="80" as="geometry" />
        </mxCell>
        <mxCell id="TDHP-WZ_9Jo_Nsl-w6er-6" value="VLAN 2001&lt;br&gt;10.1.101.0/24" style="text;html=1;align=center;verticalAlign=middle;whiteSpace=wrap;rounded=0;labelBackgroundColor=none;fontSize=14;fontColor=#003366;" vertex="1" parent="1">
          <mxGeometry x="550" y="910" width="130" height="30" as="geometry" />
        </mxCell>
        <mxCell id="TDHP-WZ_9Jo_Nsl-w6er-7" value="SW101" style="sketch=0;points=[[0.015,0.015,0],[0.985,0.015,0],[0.985,0.985,0],[0.015,0.985,0],[0.25,0,0],[0.5,0,0],[0.75,0,0],[1,0.25,0],[1,0.5,0],[1,0.75,0],[0.75,1,0],[0.5,1,0],[0.25,1,0],[0,0.75,0],[0,0.5,0],[0,0.25,0]];verticalLabelPosition=bottom;html=1;verticalAlign=top;aspect=fixed;align=center;pointerEvents=1;shape=mxgraph.cisco19.rect;prIcon=l3_switch;fillColor=#FAFAFA;strokeColor=#005073;labelBackgroundColor=none;fontSize=14;" vertex="1" parent="1">
          <mxGeometry x="159.52" y="1080" width="50" height="50" as="geometry" />
        </mxCell>
        <mxCell id="TDHP-WZ_9Jo_Nsl-w6er-8" value="SW102" style="sketch=0;points=[[0.015,0.015,0],[0.985,0.015,0],[0.985,0.985,0],[0.015,0.985,0],[0.25,0,0],[0.5,0,0],[0.75,0,0],[1,0.25,0],[1,0.5,0],[1,0.75,0],[0.75,1,0],[0.5,1,0],[0.25,1,0],[0,0.75,0],[0,0.5,0],[0,0.25,0]];verticalLabelPosition=bottom;html=1;verticalAlign=top;aspect=fixed;align=center;pointerEvents=1;shape=mxgraph.cisco19.rect;prIcon=l3_switch;fillColor=#FAFAFA;strokeColor=#005073;labelBackgroundColor=none;fontSize=14;" vertex="1" parent="1">
          <mxGeometry x="589.52" y="1070" width="50" height="50" as="geometry" />
        </mxCell>
        <mxCell id="TDHP-WZ_9Jo_Nsl-w6er-9" value="" style="endArrow=none;html=1;rounded=0;fontSize=14;entryX=0;entryY=0.75;entryDx=0;entryDy=0;exitX=1;exitY=0.25;exitDx=0;exitDy=0;exitPerimeter=0;" edge="1" parent="1" source="TDHP-WZ_9Jo_Nsl-w6er-7" target="TDHP-WZ_9Jo_Nsl-w6er-6">
          <mxGeometry width="50" height="50" relative="1" as="geometry">
            <mxPoint x="210" y="1080" as="sourcePoint" />
            <mxPoint x="260" y="1030" as="targetPoint" />
          </mxGeometry>
        </mxCell>
        <mxCell id="TDHP-WZ_9Jo_Nsl-w6er-16" value="VLAN2001&lt;br&gt;.2" style="edgeLabel;html=1;align=center;verticalAlign=middle;resizable=0;points=[];fontSize=14;fontColor=#003366;" vertex="1" connectable="0" parent="TDHP-WZ_9Jo_Nsl-w6er-9">
          <mxGeometry x="-0.7883" y="-1" relative="1" as="geometry">
            <mxPoint x="14" y="4" as="offset" />
          </mxGeometry>
        </mxCell>
        <mxCell id="TDHP-WZ_9Jo_Nsl-w6er-10" value="" style="endArrow=none;html=1;rounded=0;fontSize=14;exitX=1;exitY=0.75;exitDx=0;exitDy=0;entryX=0;entryY=0.25;entryDx=0;entryDy=0;entryPerimeter=0;" edge="1" parent="1" source="TDHP-WZ_9Jo_Nsl-w6er-4" target="TDHP-WZ_9Jo_Nsl-w6er-8">
          <mxGeometry width="50" height="50" relative="1" as="geometry">
            <mxPoint x="539.52" y="1120" as="sourcePoint" />
            <mxPoint x="589.52" y="1070" as="targetPoint" />
          </mxGeometry>
        </mxCell>
        <mxCell id="TDHP-WZ_9Jo_Nsl-w6er-11" value="" style="endArrow=none;html=1;rounded=0;fontSize=14;entryX=0.5;entryY=1;entryDx=0;entryDy=0;entryPerimeter=0;exitX=0.5;exitY=0;exitDx=0;exitDy=0;exitPerimeter=0;" edge="1" parent="1" source="TDHP-WZ_9Jo_Nsl-w6er-7" target="TDHP-WZ_9Jo_Nsl-w6er-1">
          <mxGeometry width="50" height="50" relative="1" as="geometry">
            <mxPoint x="180.77" y="1080" as="sourcePoint" />
            <mxPoint x="230.77" y="1030" as="targetPoint" />
          </mxGeometry>
        </mxCell>
        <mxCell id="TDHP-WZ_9Jo_Nsl-w6er-15" value="VLAN 2000&lt;br&gt;.2" style="edgeLabel;html=1;align=center;verticalAlign=middle;resizable=0;points=[];fontSize=14;fontColor=#990000;" vertex="1" connectable="0" parent="TDHP-WZ_9Jo_Nsl-w6er-11">
          <mxGeometry x="-0.2923" y="-1" relative="1" as="geometry">
            <mxPoint x="-1" y="16" as="offset" />
          </mxGeometry>
        </mxCell>
        <mxCell id="TDHP-WZ_9Jo_Nsl-w6er-17" value="VLAN 2000&lt;br&gt;.3" style="edgeLabel;html=1;align=center;verticalAlign=middle;resizable=0;points=[];fontSize=14;labelBackgroundColor=default;fontColor=#990000;" vertex="1" connectable="0" parent="TDHP-WZ_9Jo_Nsl-w6er-11">
          <mxGeometry x="-0.2923" y="-1" relative="1" as="geometry">
            <mxPoint x="353" y="36" as="offset" />
          </mxGeometry>
        </mxCell>
        <mxCell id="TDHP-WZ_9Jo_Nsl-w6er-14" value="" style="endArrow=none;html=1;rounded=0;fontSize=14;entryX=0.5;entryY=1;entryDx=0;entryDy=0;entryPerimeter=0;exitX=0.5;exitY=0;exitDx=0;exitDy=0;exitPerimeter=0;" edge="1" parent="1" source="TDHP-WZ_9Jo_Nsl-w6er-8" target="TDHP-WZ_9Jo_Nsl-w6er-5">
          <mxGeometry width="50" height="50" relative="1" as="geometry">
            <mxPoint x="390" y="870" as="sourcePoint" />
            <mxPoint x="440" y="820" as="targetPoint" />
          </mxGeometry>
        </mxCell>
        <mxCell id="TDHP-WZ_9Jo_Nsl-w6er-20" value="VLAN2001&lt;br&gt;.3" style="edgeLabel;html=1;align=center;verticalAlign=middle;resizable=0;points=[];fontSize=14;labelBackgroundColor=default;fontColor=#003366;" vertex="1" connectable="0" parent="TDHP-WZ_9Jo_Nsl-w6er-14">
          <mxGeometry x="-0.4417" relative="1" as="geometry">
            <mxPoint y="5" as="offset" />
          </mxGeometry>
        </mxCell>
      </root>
    </mxGraphModel>
  </diagram>
</mxfile>
